<?xml version="1.0" encoding="UTF-8" standalone="no"?>
<svg
   xmlns:dc="http://purl.org/dc/elements/1.1/"
   xmlns:cc="http://creativecommons.org/ns#"
   xmlns:rdf="http://www.w3.org/1999/02/22-rdf-syntax-ns#"
   xmlns:svg="http://www.w3.org/2000/svg"
   xmlns="http://www.w3.org/2000/svg"
   xmlns:sodipodi="http://sodipodi.sourceforge.net/DTD/sodipodi-0.dtd"
   xmlns:inkscape="http://www.inkscape.org/namespaces/inkscape"
   viewBox="0 0 133.33333 133.33333"
   fill="#000000"
   width="100"
   height="100"
   version="1.1"
   id="svg885"
   sodipodi:docname="tasks-icon.svg"
   inkscape:version="1.0 (4035a4fb49, 2020-05-01)">
  <metadata
     id="metadata891">
    <rdf:RDF>
      <cc:Work
         rdf:about="">
        <dc:format>image/svg+xml</dc:format>
        <dc:type
           rdf:resource="http://purl.org/dc/dcmitype/StillImage" />
        <dc:title />
      </cc:Work>
    </rdf:RDF>
  </metadata>
  <defs
     id="defs889" />
  <sodipodi:namedview
     inkscape:document-rotation="0"
     pagecolor="#ffffff"
     bordercolor="#666666"
     borderopacity="1"
     objecttolerance="10"
     gridtolerance="10"
     guidetolerance="10"
     inkscape:pageopacity="0"
     inkscape:pageshadow="2"
     inkscape:window-width="1276"
     inkscape:window-height="1390"
     id="namedview887"
     showgrid="false"
     inkscape:zoom="2.9487335"
     inkscape:cx="17.857631"
     inkscape:cy="92.383231"
     inkscape:window-x="1280"
     inkscape:window-y="48"
     inkscape:window-maximized="1"
     inkscape:current-layer="svg885" />
  <path
     d="M 0,0 H 24 V 24 H 0 Z"
     fill="none"
     id="path881" />
  <rect
     y="0"
     x="0"
     height="133.33333"
     width="133.33333"
     id="rect3554"
     style="fill:#039be5;fill-opacity:1;stroke:none;stroke-width:0.485156" />
  <path
     id="path961"
     d="M 99.333334,29.33333 H 79.826664 C 77.866664,23.92 72.733334,20 66.666664,20 c -6.06667,0 -11.2,3.92 -13.16,9.33333 H 33.999999 c -5.133333,0 -9.333333,4.2 -9.333333,9.33334 V 104 c 0,5.13333 4.2,9.33333 9.333333,9.33333 h 65.333335 c 5.133326,0 9.333326,-4.2 9.333326,-9.33333 V 38.66667 c 0,-5.13334 -4.2,-9.33334 -9.333326,-9.33334 z m -32.66667,0 c 2.56667,0 4.66667,2.1 4.66667,4.66667 0,2.56667 -2.1,4.66667 -4.66667,4.66667 -2.56667,0 -4.66667,-2.1 -4.66667,-4.66667 0,-2.56667 2.1,-4.66667 4.66667,-4.66667 z m 9.33333,65.33333 H 43.333332 V 85.33333 H 75.999994 Z M 89.999994,76 H 43.333332 v -9.33333 h 46.666662 z m 0,-18.66667 H 43.333332 V 48 h 46.666662 z"
     style="fill:#ffffff;fill-opacity:1;stroke-width:4.66667" />
</svg>
